# xmcd
#
# Track frame offsets: 
#        150
#        35042
#        81309
#
# Disc length: 1583 seconds
#
# Revision: 0
# Processed by: cddbd v1.4PL0 Copyright (c) Steve Scherf et al.
# Submitted via: ExactAudioCopy v0.90b4
#
DISCID=20062d03
DTITLE=Van Morrison - Hay-on-Wye 1997 late show, disc 2
DYEAR=1997
DGENRE=Celtic
TTITLE0=Summertime In England
TTITLE1=It's A Man's Man's Man's World >Don't Let Me Breakdown > It's 
TTITLE1=Too Late To Stop Now
TTITLE2=The Haling Game
EXTD=
EXTT0=
EXTT1=
EXTT2=
PLAYORDER=
